<svg width="42" height="42" viewBox="0 0 42 42" fill="none" xmlns="http://www.w3.org/2000/svg">
<path fill-rule="evenodd" clip-rule="evenodd" d="M39.5391 2.76978C40.8083 4.03898 40.8083 6.09677 39.5391 7.36597L7.36571 39.5393C6.0965 40.8085 4.03872 40.8085 2.76951 39.5393C1.50031 38.2701 1.50031 36.2123 2.76951 34.9431L34.9429 2.76978C36.2121 1.50057 38.2699 1.50057 39.5391 2.76978Z" fill="black"/>
<path fill-rule="evenodd" clip-rule="evenodd" d="M2.76953 2.76978C4.03873 1.50057 6.09652 1.50057 7.36572 2.76978L39.5391 34.9431C40.8083 36.2123 40.8083 38.2701 39.5391 39.5393C38.2699 40.8085 36.2121 40.8085 34.9429 39.5393L2.76953 7.36597C1.50033 6.09677 1.50033 4.03898 2.76953 2.76978Z" fill="black"/>
</svg>
